# xmcd
#
# Track frame offsets:
#	150
#	16172
#	32222
#	45697
#	63932
#	86125
#	101860
#	119887
#	135860
#	151850
#	167882
#	181357
#	199597
#	221760
#	237487
#	255517
#
# Disc length: 3620 seconds
#
# Revision: 1
# Processed by: cddbd v1.5.1PL2 Copyright (c) Steve Scherf et al.
# Submitted via: audiograbber 1.83.01
#
DISCID=e00e2210
DTITLE=Various Artist - Sc3129
DYEAR=1900
DGENRE=Country
TTITLE0=Nesler, Mark - Baby Ain't Rocking Me Right
TTITLE1=Walker, Clay - She's Always Right
TTITLE2=Triggs, Trini - Horse To Mexico
TTITLE3=Lone Star - Saturday Night
TTITLE4=Wariner, Steve - Two Teardrops
TTITLE5=Brown, T. Graham - Happy Ever After
TTITLE6=Paisley, Brad - Who Needs Pictures
TTITLE7=Travis, Randy - Stranger In My Mirror
TTITLE8=Nesler, Mark - Baby Ain't Rocking Me Right
TTITLE9=Walker, Clay - She's Always Right
TTITLE10=Triggs, Trini - Horse To Mexico
TTITLE11=Lone Star - Saturday Night
TTITLE12=Wariner, Steve - Two Teardrops
TTITLE13=Brown, T. Graham - Happy Ever After
TTITLE14=Paisley, Brad - Who Needs Pictures
TTITLE15=Travis, Randy - Stranger In My Mirror
EXTD=
EXTT0=
EXTT1=
EXTT2=
EXTT3=
EXTT4=
EXTT5=
EXTT6=
EXTT7=
EXTT8=
EXTT9=
EXTT10=
EXTT11=
EXTT12=
EXTT13=
EXTT14=
EXTT15=
PLAYORDER=
